# xmcd
#
# Track frame offsets:
#	150
#	30976
#	40953
#	56588
#	79910
#	96303
#	117105
#	132480
#	156921
#	185181
#	202139
#	220634
#	233822
#	251530
#
# Disc length: 3678 seconds
#
# Revision: 1
# Processed by: cddbd v1.5.2PL0 Copyright (c) Steve Scherf et al.
# Submitted via: EasyCDDAExtractor 11.0.2.1
#
DISCID=c70e5c0e
DTITLE=Various Artist - Tokyo Lounge-ONE Tokyou Soft Mixed
DYEAR=1900
DGENRE=Club
TTITLE0=9 in istanbul,8 in berlin - Orientation
TTITLE1=better world - Dephazz
TTITLE2=konspiration -  Kamasutra
TTITLE3=stardust into man - Stephane Pompougnac
TTITLE4=missing plece - Crystin
TTITLE5=blue(eivissa re-work) - Goloka
TTITLE6=every hour - Wayne Martin
TTITLE7=flor de vida - Chris Le Blanc
TTITLE8=foto viva(nicola conte remix) - Mo'Horizons
TTITLE9=things she said today - Dephazz
TTITLE10=it will turn out right - Dephazz
TTITLE11=otoko noko - Stomu Kamasutra
TTITLE12=ghosts and roses - Stephane Pompougnac
TTITLE13=say goodbye(losoul'she's homeless" mix) - Khan
EXTD=
EXTT0=
EXTT1=
EXTT2=
EXTT3=
EXTT4=
EXTT5=
EXTT6=
EXTT7=
EXTT8=
EXTT9=
EXTT10=
EXTT11=
EXTT12=
EXTT13=
PLAYORDER=
